<svg width="36" height="62" viewBox="0 0 36 62" fill="none" xmlns="http://www.w3.org/2000/svg">
<rect width="36" height="62" fill="#003DB8"/>
<rect x="7" y="8" width="22" height="5.66667" fill="#239F40"/>
<rect x="7" y="13.667" width="22" height="5.66667" fill="white"/>
<rect x="7" y="19.333" width="22" height="5.66667" fill="#DA0000"/>
<path d="M8.38007 35.4697V42.3504H7V35.4697H8.38007Z" fill="white"/>
<path d="M10.3548 42.4194C10.105 42.4194 9.89803 42.3438 9.73373 42.1927C9.57601 42.0349 9.49715 41.8411 9.49715 41.6111C9.49715 41.381 9.57601 41.1905 9.73373 41.0393C9.89803 40.8816 10.105 40.8027 10.3548 40.8027C10.5979 40.8027 10.7984 40.8816 10.9561 41.0393C11.1138 41.1905 11.1927 41.381 11.1927 41.6111C11.1927 41.8411 11.1138 42.0349 10.9561 42.1927C10.7984 42.3438 10.5979 42.4194 10.3548 42.4194Z" fill="white"/>
<path d="M15.853 42.3504L14.335 39.6691H13.6843V42.3504H12.3043V35.4697H14.887C15.4193 35.4697 15.8727 35.565 16.2473 35.7556C16.6219 35.9396 16.9012 36.1926 17.0852 36.5146C17.2758 36.8301 17.3711 37.185 17.3711 37.5793C17.3711 38.0327 17.2397 38.4435 16.9768 38.8115C16.7139 39.1729 16.3229 39.4227 15.8037 39.5607L17.45 42.3504H15.853ZM13.6843 38.634H14.8377C15.2123 38.634 15.4916 38.5453 15.6756 38.3679C15.8596 38.1839 15.9516 37.9309 15.9516 37.6088C15.9516 37.2934 15.8596 37.0502 15.6756 36.8794C15.4916 36.7019 15.2123 36.6132 14.8377 36.6132H13.6843V38.634Z" fill="white"/>
<path d="M19.2305 42.4194C18.9808 42.4194 18.7738 42.3438 18.6095 42.1927C18.4518 42.0349 18.3729 41.8411 18.3729 41.6111C18.3729 41.381 18.4518 41.1905 18.6095 41.0393C18.7738 40.8816 18.9808 40.8027 19.2305 40.8027C19.4737 40.8027 19.6741 40.8816 19.8318 41.0393C19.9896 41.1905 20.0684 41.381 20.0684 41.6111C20.0684 41.8411 19.9896 42.0349 19.8318 42.1927C19.6741 42.3438 19.4737 42.4194 19.2305 42.4194Z" fill="white"/>
<path d="M8.38007 47.1197V54.0004H7V47.1197H8.38007Z" fill="white"/>
<path d="M13.2923 54.0004L11.7743 51.3191H11.1237V54.0004H9.74359V47.1197H12.3263C12.8586 47.1197 13.3121 47.215 13.6867 47.4056C14.0612 47.5896 14.3405 47.8426 14.5246 48.1646C14.7151 48.4801 14.8104 48.8349 14.8104 49.2292C14.8104 49.6827 14.679 50.0934 14.4161 50.4614C14.1533 50.8229 13.7622 51.0726 13.2431 51.2106L14.8893 54.0004H13.2923ZM11.1237 50.284H12.277C12.6516 50.284 12.9309 50.1953 13.1149 50.0179C13.2989 49.8338 13.3909 49.5808 13.3909 49.2588C13.3909 48.9434 13.2989 48.7002 13.1149 48.5293C12.9309 48.3519 12.6516 48.2632 12.277 48.2632H11.1237V50.284Z" fill="white"/>
<path d="M20.2777 52.6893H17.5373L17.0839 54.0004H15.6348L18.1091 47.1098H19.7159L22.1901 54.0004H20.7312L20.2777 52.6893ZM19.9031 51.5852L18.9075 48.7068L17.9119 51.5852H19.9031Z" fill="white"/>
<path d="M29 54.0004H27.6199L24.495 49.2785V54.0004H23.115V47.1098H24.495L27.6199 51.8415V47.1098H29V54.0004Z" fill="white"/>
</svg>
